<svg width="83" height="12" viewBox="0 0 83 12" fill="none" xmlns="http://www.w3.org/2000/svg">
<path d="M8.512 5.89C9.072 6.086 9.51067 6.394 9.828 6.814C10.1453 7.22467 10.304 7.724 10.304 8.312C10.304 9.17067 9.95867 9.83333 9.268 10.3C8.57733 10.7667 7.57867 11 6.272 11H0.98V1.2H5.992C7.24267 1.2 8.19467 1.43333 8.848 1.9C9.50133 2.35733 9.828 2.978 9.828 3.762C9.828 4.22867 9.71133 4.64867 9.478 5.022C9.254 5.386 8.932 5.67533 8.512 5.89ZM3.724 3.202V5.092H5.628C6.56133 5.092 7.028 4.77467 7.028 4.14C7.028 3.51467 6.56133 3.202 5.628 3.202H3.724ZM6.048 8.998C7.01867 8.998 7.504 8.66667 7.504 8.004C7.504 7.34133 7.01867 7.01 6.048 7.01H3.724V8.998H6.048ZM14.1478 4.322C14.4184 3.97667 14.7684 3.72 15.1978 3.552C15.6364 3.37467 16.1358 3.286 16.6958 3.286V5.68C16.4531 5.652 16.2524 5.638 16.0938 5.638C15.5244 5.638 15.0764 5.792 14.7498 6.1C14.4324 6.408 14.2738 6.87933 14.2738 7.514V11H11.6138V3.412H14.1478V4.322ZM21.5331 11.126C20.7211 11.126 19.9884 10.958 19.3351 10.622C18.6818 10.286 18.1684 9.81933 17.7951 9.222C17.4311 8.62467 17.2491 7.948 17.2491 7.192C17.2491 6.44533 17.4311 5.77333 17.7951 5.176C18.1684 4.57867 18.6771 4.11667 19.3211 3.79C19.9744 3.454 20.7118 3.286 21.5331 3.286C22.3544 3.286 23.0918 3.454 23.7451 3.79C24.3984 4.11667 24.9071 4.57867 25.2711 5.176C25.6351 5.764 25.8171 6.436 25.8171 7.192C25.8171 7.948 25.6351 8.62467 25.2711 9.222C24.9071 9.81933 24.3984 10.286 23.7451 10.622C23.0918 10.958 22.3544 11.126 21.5331 11.126ZM21.5331 9.012C21.9998 9.012 22.3824 8.85333 22.6811 8.536C22.9798 8.20933 23.1291 7.76133 23.1291 7.192C23.1291 6.632 22.9798 6.19333 22.6811 5.876C22.3824 5.55867 21.9998 5.4 21.5331 5.4C21.0664 5.4 20.6838 5.55867 20.3851 5.876C20.0864 6.19333 19.9371 6.632 19.9371 7.192C19.9371 7.76133 20.0864 8.20933 20.3851 8.536C20.6838 8.85333 21.0664 9.012 21.5331 9.012ZM31.9913 3.286C32.934 3.286 33.69 3.566 34.2593 4.126C34.838 4.686 35.1273 5.53067 35.1273 6.66V11H32.4673V7.094C32.4673 6.058 32.052 5.54 31.2213 5.54C30.764 5.54 30.3953 5.68933 30.1153 5.988C29.8446 6.28667 29.7093 6.73467 29.7093 7.332V11H27.0493V3.412H29.5833V4.238C29.882 3.93 30.2366 3.69667 30.6473 3.538C31.058 3.37 31.506 3.286 31.9913 3.286ZM41.6134 11L40.2554 9.012L38.7994 11H35.9154L38.7994 7.206L35.9994 3.412H38.9954L40.3394 5.33L41.7394 3.412H44.5534L41.7534 7.108L44.6514 11H41.6134ZM54.5515 11.196C53.5249 11.196 52.6009 10.9813 51.7795 10.552C50.9675 10.1133 50.3282 9.50667 49.8615 8.732C49.3949 7.95733 49.1615 7.08 49.1615 6.1C49.1615 5.12 49.3949 4.24267 49.8615 3.468C50.3282 2.69333 50.9675 2.09133 51.7795 1.662C52.6009 1.22333 53.5249 1.004 54.5515 1.004C55.4475 1.004 56.2549 1.16267 56.9735 1.48C57.6922 1.79733 58.2895 2.25467 58.7655 2.852L57.0015 4.448C56.3669 3.68267 55.5969 3.3 54.6915 3.3C54.1595 3.3 53.6835 3.41667 53.2635 3.65C52.8529 3.88333 52.5309 4.21467 52.2975 4.644C52.0735 5.064 51.9615 5.54933 51.9615 6.1C51.9615 6.65067 52.0735 7.14067 52.2975 7.57C52.5309 7.99 52.8529 8.31667 53.2635 8.55C53.6835 8.78333 54.1595 8.9 54.6915 8.9C55.5969 8.9 56.3669 8.51733 57.0015 7.752L58.7655 9.348C58.2895 9.94533 57.6922 10.4027 56.9735 10.72C56.2549 11.0373 55.4475 11.196 54.5515 11.196ZM59.8755 0.611999H62.5355V11H59.8755V0.611999ZM72.2442 3.412V11H69.7102V10.188C69.4302 10.496 69.0942 10.7293 68.7022 10.888C68.3102 11.0467 67.8948 11.126 67.4562 11.126C66.4762 11.126 65.6922 10.8367 65.1042 10.258C64.5255 9.67933 64.2362 8.81133 64.2362 7.654V3.412H66.8962V7.22C66.8962 7.78933 67.0035 8.20467 67.2182 8.466C67.4328 8.72733 67.7455 8.858 68.1562 8.858C68.5762 8.858 68.9168 8.71333 69.1782 8.424C69.4488 8.12533 69.5842 7.67267 69.5842 7.066V3.412H72.2442ZM78.7315 3.286C79.4222 3.286 80.0475 3.44467 80.6075 3.762C81.1768 4.07933 81.6248 4.53667 81.9515 5.134C82.2875 5.722 82.4555 6.408 82.4555 7.192C82.4555 7.976 82.2875 8.66667 81.9515 9.264C81.6248 9.86133 81.1768 10.3233 80.6075 10.65C80.0475 10.9673 79.4222 11.126 78.7315 11.126C77.7328 11.126 76.9862 10.832 76.4915 10.244V11H73.9575V0.611999H76.6175V4.07C77.1308 3.54733 77.8355 3.286 78.7315 3.286ZM78.1715 9.012C78.6382 9.012 79.0208 8.85333 79.3195 8.536C79.6182 8.20933 79.7675 7.76133 79.7675 7.192C79.7675 6.632 79.6182 6.19333 79.3195 5.876C79.0208 5.55867 78.6382 5.4 78.1715 5.4C77.7048 5.4 77.3222 5.55867 77.0235 5.876C76.7248 6.19333 76.5755 6.632 76.5755 7.192C76.5755 7.76133 76.7248 8.20933 77.0235 8.536C77.3222 8.85333 77.7048 9.012 78.1715 9.012Z" fill="white"/>
</svg>
